<svg width="18" height="22" viewBox="0 0 18 22" fill="none" xmlns="http://www.w3.org/2000/svg">
<path d="M1.96202 3.01295L1.95898 5.31283V16.6924C1.95898 18.6368 3.53531 20.2132 5.47982 20.2132L14.8141 20.2135C14.4794 21.16 13.5767 21.8382 12.5154 21.8382H5.47982C2.63786 21.8382 0.333984 19.5344 0.333984 16.6924V5.31283C0.333984 4.25039 1.01372 3.34671 1.96202 3.01295ZM15.2298 0.166992C16.576 0.166992 17.6673 1.2583 17.6673 2.60449V16.6878C17.6673 18.034 16.576 19.1253 15.2298 19.1253H5.47982C4.13362 19.1253 3.04232 18.034 3.04232 16.6878V2.60449C3.04232 1.2583 4.13362 0.166992 5.47982 0.166992H15.2298ZM15.2298 1.79199H5.47982C5.03109 1.79199 4.66732 2.15576 4.66732 2.60449V16.6878C4.66732 17.1365 5.03109 17.5003 5.47982 17.5003H15.2298C15.6785 17.5003 16.0423 17.1365 16.0423 16.6878V2.60449C16.0423 2.15576 15.6785 1.79199 15.2298 1.79199Z" fill="#181818"/>
</svg>
