<svg width="32" height="32" viewBox="0 0 32 32" fill="none" xmlns="http://www.w3.org/2000/svg">
<path d="M21.3334 9.33356C21.3334 8.59718 21.9304 8.00022 22.6667 8.00022C23.4031 8.00022 24.0001 8.59718 24.0001 9.33356C24.0001 10.0699 23.4031 10.6669 22.6667 10.6669C21.9304 10.6669 21.3334 10.0699 21.3334 9.33356Z" fill="white"/>
<path fill-rule="evenodd" clip-rule="evenodd" d="M16.0001 9.66689C12.5023 9.66689 9.66675 12.5024 9.66675 16.0002C9.66675 19.498 12.5023 22.3336 16.0001 22.3336C19.4979 22.3336 22.3334 19.498 22.3334 16.0002C22.3334 12.5024 19.4979 9.66689 16.0001 9.66689ZM11.6667 16.0002C11.6667 13.607 13.6068 11.6669 16.0001 11.6669C18.3933 11.6669 20.3334 13.607 20.3334 16.0002C20.3334 18.3935 18.3933 20.3336 16.0001 20.3336C13.6068 20.3336 11.6667 18.3935 11.6667 16.0002Z" fill="white"/>
<path fill-rule="evenodd" clip-rule="evenodd" d="M23.0111 3.77758C18.389 3.26099 13.6112 3.26099 8.98911 3.77758C6.30637 4.07741 4.14059 6.19076 3.82518 8.88746C3.27247 13.6132 3.27247 18.3872 3.82518 23.113C4.14059 25.8097 6.30637 27.923 8.98911 28.2229C13.6112 28.7395 18.389 28.7395 23.0111 28.2229C25.6938 27.923 27.8596 25.8097 28.175 23.113C28.7277 18.3872 28.7277 13.6132 28.175 8.88746C27.8596 6.19076 25.6938 4.07741 23.0111 3.77758ZM9.21125 5.7652C13.6857 5.26511 18.3145 5.26511 22.7889 5.7652C24.5624 5.96341 25.9831 7.3629 26.1886 9.1198C26.7232 13.6912 26.7232 18.3093 26.1886 22.8806C25.9831 24.6375 24.5624 26.037 22.7889 26.2352C18.3145 26.7353 13.6857 26.7353 9.21125 26.2352C7.43778 26.037 6.01713 24.6375 5.81164 22.8806C5.27698 18.3093 5.27698 13.6912 5.81164 9.1198C6.01713 7.3629 7.43778 5.96341 9.21125 5.7652Z" fill="white"/>
</svg>
