<svg width="26" height="26" viewBox="0 0 26 26" fill="none" xmlns="http://www.w3.org/2000/svg">
<path d="M10.2638 13.8927C10.2001 13.9332 10.1699 14.0102 10.1891 14.0832L11.0357 17.2947L11.6746 14.8568C11.6827 14.8261 11.6963 14.8008 11.7192 14.7787C12.1153 14.3963 16.0298 10.617 16.2011 10.4569C16.3818 10.2883 16.3216 10.2522 16.3216 10.2522C16.3337 10.0475 15.9965 10.2522 15.9965 10.2522L10.2638 13.8927Z" fill="white"/>
<path fill-rule="evenodd" clip-rule="evenodd" d="M13 26C20.1797 26 26 20.1797 26 13C26 5.8203 20.1797 0 13 0C5.8203 0 0 5.8203 0 13C0 20.1797 5.8203 26 13 26ZM16.7462 17.4999L16.7458 17.5009L16.7452 17.5024L16.7436 17.5062L16.7393 17.5162C16.7358 17.524 16.7312 17.5341 16.7253 17.5459C16.7136 17.5695 16.6967 17.6009 16.6741 17.6366C16.6296 17.7069 16.5587 17.8002 16.4554 17.8828C16.3504 17.9669 16.2106 18.0406 16.0347 18.0647C15.8585 18.0887 15.6658 18.0602 15.4595 17.9702L15.4273 17.9561L13.1572 16.2157L11.8354 17.629C11.7024 17.9476 11.3894 18.1612 11.0364 18.1614C10.6426 18.1617 10.2981 17.8965 10.1977 17.5157L9.3511 14.3041C9.32298 14.1975 9.31246 14.0893 9.31816 13.9833L7.62802 13.4143L7.6241 13.4128L7.61796 13.4106C7.61317 13.4087 7.60697 13.4063 7.59956 13.4033C7.58477 13.3973 7.56492 13.3888 7.54155 13.3776C7.49543 13.3557 7.43244 13.3221 7.36661 13.2755C7.24379 13.1886 7.06161 13.0208 7.02855 12.7565C6.98864 12.4374 7.22502 12.2362 7.34915 12.1512C7.42224 12.1011 7.49431 12.0646 7.54648 12.041C7.57304 12.0289 7.59566 12.0197 7.61227 12.0132C7.6206 12.01 7.6275 12.0074 7.63272 12.0055L7.63538 12.0045L17.2957 8.21494L17.3033 8.21173C17.3111 8.2085 17.3218 8.20417 17.335 8.19906C17.3612 8.18889 17.3979 8.17544 17.4418 8.16148C17.527 8.13435 17.6502 8.10175 17.7807 8.09184C17.9042 8.08247 18.0803 8.08957 18.2335 8.18933C18.4085 8.3033 18.4889 8.49331 18.4889 8.71096V8.73934L16.7563 17.4748L16.7462 17.4999Z" fill="white"/>
</svg>
